<svg xmlns="http://www.w3.org/2000/svg" width="564.81023" height="449.94078" viewBox="0 0 564.81023 449.94078" xmlns:xlink="http://www.w3.org/1999/xlink"><g><g><polygon points="496.13759 436.6157 484.39597 436.61455 478.81042 391.32495 496.13998 391.32614 496.13759 436.6157" fill="#ffb6b6"/><path d="M496.55089,448.86454l-36.10718-.00138v-.45658c.00051-7.76149,6.29243-14.05327,14.05392-14.0537h.00087l6.59542-5.0036,12.30561,5.0044,3.15193,.00007-.00058,14.5108Z" fill="#2f2e41"/></g><g><polygon points="444.0828 436.6157 432.34118 436.61455 426.75563 391.32495 444.08519 391.32614 444.0828 436.6157" fill="#ffb6b6"/><path d="M444.4961,448.86454l-36.10718-.00138v-.45658c.00051-7.76149,6.29243-14.05327,14.05392-14.0537h.00087l6.59542-5.0036,12.30561,5.0044,3.15193,.00007-.00058,14.5108Z" fill="#2f2e41"/></g><path d="M438.48767,183.86459l67.74254,1.42616s12.1785,19.96622,2.88039,48.13286l1.04155,7.84387-4.27848,12.12235-2.13924,37.08013,2.13924,5.70463-1.42616,10.69619s5.70463,70.59485-8.55695,106.24882l-17.1139-.71308-6.41771-93.02316,3.5654-6.80794-.71308-2.85232-8.55695-42.78476-8.55695,22.10546v12.28237l-7.84387,9.11001s2.85232,84.14336-4.99156,101.25727h-19.1605l-7.22344-114.09269,7.13079-66.31638-1.42616-4.27848,2.13924-2.13924-1.42616-7.13079,13.19197-33.87127Z" fill="#2f2e41"/><path d="M467.36738,53.72761l20.6793-4.99156,5.70463,13.54851s29.51473,15.68775,30.94089,37.08013c0,0,4,17.1139,.4346,24.95778-3.5654,7.84387-18.54006,32.80165-18.54006,32.80165,0,0,13.54851,43.49784,9.98311,45.63708s-88.42184-2.13924-88.42184-6.41771,14.12235-49.20247,14.12235-49.20247l2.99156-77.01257,19.25314-7.13079,2.85232-9.27003Z" fill="#3f3d56"/><path d="M522.4972,229.26281c-4.32812-2.18115-6.06903-7.45773-3.88821-11.78589,.21953-.43568,.47801-.83761,.756-1.21933l-11.50683-78.89287,15.93069,.50961,8.33338,76.86883c3.02033,2.56179,4.0219,6.93852,2.16089,10.63157-2.18082,4.32817-7.45755,6.0689-11.78592,3.88807Z" fill="#ffb6b6"/><path d="M371.33841,192.02794c-1.74236-4.52263,.51101-9.60155,5.03343-11.34416,.45524-.17541,.91668-.29966,1.37899-.39582l44.45222-66.18528,11.46213,11.07548-45.44449,62.55445c.5177,3.92646-1.67924,7.84212-5.53819,9.32889-4.52242,1.74262-9.60133-.511-11.34409-5.03356Z" fill="#ffb6b6"/><path d="M493.46826,117.46574c-4.50105-15.46355,2.97474-31.24023,19.07986-31.16403,4.65498,.02203,8.27144,1.3728,9.27375,5.11178,3.50809,13.08646,5.42102,32.8406,5.42102,32.8406l4.16156,21.0321-2.52062,4.36699,5.25488,14.09471-2.54902,6.66807-.55111,34.05192-12.83543-.71308-14.14221-25.95921-5.40779-3.21553s4.34205-41.972-4.29493-54.05681l-.88997-3.05752Z" fill="#3f3d56"/><path d="M435.97525,79.40956c7.50538-14.24957,26.72007-17.6249,38.25119-6.38149,3.33292,3.24976,4.99575,6.73378,3.11913,10.11948-6.56817,11.84994-21.79301,24.60873-21.79301,24.60873l-18.74895,30.1414-4.84687,1.38994-6.01219,13.78869-12.88363,15.14768-17.06436,8.99919-9.98311-9.98311,2.11986-12.83292,25.69024-34.23032s18.48451-23.25715,20.66771-37.94979l1.48399-2.81748Z" fill="#3f3d56"/><path d="M471.29678,49.55996c.4723,.05676,.94307,.09937,1.41152,.12074,1.45733,.07992,2.89714-.00317,4.28468-.23844,4.21612-.67573,8.04634-2.67263,11.00181-5.60105,3.12457-3.09,5.26291-7.2143,5.84095-11.90953,1.35418-11.08279-6.53763-21.17844-17.62042-22.53263-10.92374-1.34261-20.8815,6.29773-22.47101,17.12611-.025,.16763-.05076,.3282-.06871,.49507-1.35342,11.08988,6.53058,21.1792,17.62118,22.53972Z" fill="#ffb6b6"/><path d="M449.18701,25.78329c2.87086,1.41972,7.56179-3.04364,9.35839-.47564,.29178-.55496,.61415-1.09167,.93252-1.59923,.28822-.45416,.70036-1.42364,1.17737-1.58967-.60361,1.45626-.47044,3.42853,.15593,5.1183,2.83197,1.05813,6.53895-1.28412,9.15999-4.05461,4.1157-4.34412,10.83602,6.7955,9.24702,12.56046,2.02228-2.46946,6.41068-1.07667,7.89766,1.74692,1.48627,2.81653-1.02508,5.07323-1.56218,8.2149l4.05412-.51486c2.55783-2.49121,2.37893-6.68905,4.48536-9.57637,3.51815-4.83207,4.88134-9.76236,2.23651-14.74927-2.34605-4.40945-2.5653-10.11622-6.8693-12.6584,1.88054-.91942-4.80698,.51694-3.02066-2.47936,1.79418-2.99001-7.76916-3.35292-8.39297-1.75104-2.73279-3.27058-5.48917-5.42694-8.85069-2.80627-3.3015,2.57832-2.95985,5.28843-6.83732,5.04556-1.81941-.11273-1.61959,3.27962-2.70126,4.75862-1.07535,1.4711-5.25544,2.41549-5.45884,2.25806-1.10411-.86381-4.86033,6.48971-4.86033,6.48971,0,0-3.04572,4.6235-.15133,6.06219Z" fill="#2f2e41"/></g><circle cx="196.15526" cy="277.13036" r="123" fill="#f2f2f2"/><path d="M360.7818,159.98167c-1.10303,0-2,.89697-2,2v64c0,1.10303,.89697,2,2,2s2-.89697,2-2v-64c0-1.10303-.89697-2-2-2Z" fill="#3f3d56"/><path d="M24.7818,111.98167c-1.10303,0-2,.89697-2,2v16c0,1.10303,.89697,2,2,2s2-.89697,2-2v-16c0-1.10303-.89697-2-2-2Z" fill="#3f3d56"/><path d="M24.7818,159.98167c-1.10303,0-2,.89697-2,2v31c0,1.10303,.89697,2,2,2s2-.89697,2-2v-31c0-1.10303-.89697-2-2-2Z" fill="#3f3d56"/><path d="M24.7818,203.98167c-1.10303,0-2,.89697-2,2v31c0,1.10303,.89697,2,2,2s2-.89697,2-2v-31c0-1.10303-.89697-2-2-2Z" fill="#3f3d56"/><path d="M204.15526,48.98167c-1.10303,0-2,.89697-2,2v31c0,1.10303,.89697,2,2,2s2-.89697,2-2v-31c0-1.10303-.89697-2-2-2Z" fill="#3f3d56"/><g><path d="M510.55135,432.60782c2.06592,.12937,3.20768-2.43737,1.64468-3.93333l-.1555-.61819c.02047-.04951,.04105-.09897,.06178-.14839,2.08924-4.9818,9.16992-4.94742,11.24139,.04177,1.83859,4.42817,4.17942,8.86389,4.75579,13.54594,.25838,2.0668,.14213,4.17236-.31648,6.20047,4.30807-9.41059,6.57515-19.68661,6.57515-30.02077,0-2.59652-.14213-5.19301-.43275-7.78295-.239-2.11854-.56839-4.2241-.99471-6.31034-2.30575-11.2772-7.29852-22.01825-14.50012-30.98962-3.46197-1.89248-6.34906-4.85065-8.09295-8.39652-.62649-1.27891-1.11739-2.65462-1.34991-4.05618,.39398,.05168,1.48556-5.94866,1.18841-6.3168,.54906-.83317,1.53178-1.24733,2.13144-2.06034,2.98232-4.04341,7.0912-3.33741,9.23621,2.15727,4.58224,2.31266,4.62659,6.14806,1.81495,9.83683-1.78878,2.34682-2.03456,5.52233-3.60408,8.03478,.16151,.20671,.32944,.40695,.4909,.61366,2.96106,3.79788,5.52208,7.88002,7.68104,12.16859-.61017-4.76621,.29067-10.50822,1.82641-14.20959,1.74819-4.21732,5.02491-7.76915,7.91045-11.41501,3.46601-4.37924,10.57337-2.46806,11.18401,3.08332,.00591,.05375,.01166,.10745,.01731,.1612-.4286,.24178-.84849,.49867-1.25864,.76992-2.33949,1.54723-1.53096,5.17386,1.24107,5.60174l.06277,.00967c-.15503,1.54366-.41984,3.07444-.80734,4.57937,3.70179,14.31579-4.29011,19.5299-15.70147,19.76412-.25191,.12916-.49738,.25832-.74929,.38109,1.15617,3.25525,2.07982,6.59447,2.76441,9.97891,.61359,2.99043,1.03991,6.01317,1.27885,9.04888,.29715,3.83006,.27129,7.67959-.05168,11.50323l.01939-.13562c.82024-4.21115,3.10671-8.14462,6.4266-10.87028,4.94561-4.06264,11.93282-5.55869,17.26826-8.82425,2.56833-1.57196,5.85945,.45945,5.41121,3.43708l-.02182,.14261c-.79443,.32289-1.56947,.69755-2.31871,1.11733-.4286,.24184-.84848,.49867-1.25864,.76992-2.33949,1.54729-1.53096,5.17392,1.24107,5.6018l.06282,.00965c.0452,.00646,.08397,.01295,.12911,.01944-1.36282,3.23581-3.26168,6.23922-5.63854,8.82922-2.31463,12.49713-12.25603,13.68282-22.89022,10.04354h-.00648c-1.16259,5.06378-2.86128,10.01127-5.0444,14.72621h-18.02019c-.06463-.20022-.12274-.40692-.18089-.60717,1.6664,.10341,3.34571,.00649,4.98629-.29702-1.33701-1.64059-2.67396-3.29409-4.01097-4.93462-.03229-.0323-.05816-.0646-.08397-.09689-.67817-.8396-1.36282-1.67283-2.04099-2.51246l-.00036-.00102c-.04245-2.57755,.26652-5.14662,.87876-7.63984l.00057-.00035Z" fill="#f2f2f2"/><path d="M0,448.75077c0,.66003,.53003,1.19,1.19006,1.19H563.48004c.65997,0,1.19-.52997,1.19-1.19,0-.65997-.53003-1.19-1.19-1.19H1.19006c-.66003,0-1.19006,.53003-1.19006,1.19Z" fill="#ccc"/></g><path d="M142.37597,268.83935H73.15526v-2h69.2207c6.01318,0,10.90527-4.89258,10.90527-10.90625v-46.80273h2v46.80273c0,7.11621-5.78906,12.90625-12.90527,12.90625Z" fill="#ff8866"/><path d="M316.15526,299.73192H75.42284v2h117.65168c4.4804,0,8.11248,3.63208,8.11248,8.11248v36.28595h2v-36.28595c0-4.4804,3.63208-8.11248,8.11248-8.11248h104.85578v-2Z" fill="#ff8866"/><path d="M289.15526,261.13036h-61.66113c-7.11621,0-12.90527-5.78906-12.90527-12.90527v-92.56494h2v92.56494c0,6.0127,4.89209,10.90527,10.90527,10.90527h61.66113v2Z" fill="#ff8866"/><rect x="117.01903" y="370.29442" width="157.43604" height="2" fill="#ff8866"/><path d="M196.15526,401.13036c-68.37402,0-124-55.62598-124-124s55.62598-124,124-124,124,55.62598,124,124-55.62598,124-124,124Zm0-246c-67.271,0-122,54.72852-122,122s54.729,122,122,122,122-54.72852,122-122-54.729-122-122-122Z" fill="#3f3d56"/><g><path d="M374.34298,255.46601h-84.0918c-4.53809,0-8.22998-3.69189-8.22998-8.22998v-83.06592c0-4.53809,3.69189-8.22998,8.22998-8.22998h84.0918c4.53809,0,8.22998,3.69189,8.22998,8.22998v83.06592c0,4.53809-3.69189,8.22998-8.22998,8.22998Z" fill="#e6e6e6"/><path d="M305.91171,158.3922c-11.84011,0-21.43841,9.5983-21.43841,21.43841v65.643c0,4.16435,3.37587,7.54023,7.54023,7.54023h51.41989c20.26185,0,36.68733-16.42548,36.68733-36.68733v-50.39409c0-4.16435-3.37587-7.54023-7.54023-7.54023h-66.6688Z" fill="#fff"/><g><path d="M354.81925,182.53161h-45.22061c-.86273,0-1.56471-.70199-1.56471-1.56471s.70199-1.56439,1.56471-1.56439h45.22061c.86273,0,1.56439,.70166,1.56439,1.56439s-.70166,1.56471-1.56439,1.56471Z" fill="#e6e6e6"/><path d="M354.81925,215.89522h-45.22061c-.86273,0-1.56471-.70199-1.56471-1.56471s.70199-1.56439,1.56471-1.56439h45.22061c.86273,0,1.56439,.70166,1.56439,1.56439s-.70166,1.56471-1.56439,1.56471Z" fill="#e6e6e6"/><path d="M373.18239,199.22435h-81.94689c-.86273,0-1.56471-.70199-1.56471-1.56471s.70199-1.56439,1.56471-1.56439h81.94689c.86273,0,1.56439,.70166,1.56439,1.56439s-.70166,1.56471-1.56439,1.56471Z" fill="#e6e6e6"/></g><path d="M374.01912,229.46084h-29.6036c-.86273,0-1.56471-.70199-1.56471-1.56471s.70199-1.56439,1.56471-1.56439h29.6036c.86273,0,1.56439,.70166,1.56439,1.56439s-.70166,1.56471-1.56439,1.56471Z" fill="#e6e6e6"/></g><g><path d="M189.33092,420.97039H122.55637c-3.60355,0-6.53516-2.93161-6.53516-6.53516v-65.95994c0-3.60355,2.93161-6.53516,6.53516-6.53516h66.77456c3.60355,0,6.53516,2.93161,6.53516,6.53516v65.95994c0,3.60355-2.93161,6.53516-6.53516,6.53516Z" fill="#e6e6e6"/><path d="M134.99188,343.88724c-9.40184,0-17.02355,7.6217-17.02355,17.02355v52.12497c0,3.30678,2.68067,5.98745,5.98745,5.98745h40.83086c16.08928,0,29.13221-13.04294,29.13221-29.13221v-40.0163c0-3.30678-2.68067-5.98745-5.98745-5.98745h-52.93953Z" fill="#fff"/><g><path d="M173.82776,363.05555h-35.90821c-.68506,0-1.24249-.55742-1.24249-1.24249s.55742-1.24223,1.24249-1.24223h35.90821c.68506,0,1.24223,.55717,1.24223,1.24223s-.55717,1.24249-1.24223,1.24249Z" fill="#e6e6e6"/><path d="M173.82776,389.54852h-35.90821c-.68506,0-1.24249-.55742-1.24249-1.24249s.55742-1.24223,1.24249-1.24223h35.90821c.68506,0,1.24223,.55717,1.24223,1.24223s-.55717,1.24249-1.24223,1.24249Z" fill="#e6e6e6"/><path d="M188.40933,376.31072H123.33798c-.68506,0-1.24249-.55742-1.24249-1.24249s.55742-1.24223,1.24249-1.24223h65.07136c.68506,0,1.24223,.55717,1.24223,1.24223s-.55717,1.24249-1.24223,1.24249Z" fill="#e6e6e6"/></g><path d="M189.07375,400.32054h-23.50725c-.68506,0-1.24249-.55742-1.24249-1.24249s.55742-1.24223,1.24249-1.24223h23.50725c.68506,0,1.24223,.55717,1.24223,1.24223s-.55717,1.24249-1.24223,1.24249Z" fill="#e6e6e6"/></g><circle cx="295.15526" cy="260.13036" r="10" fill="#ff8866"/><circle cx="154.15526" cy="209.13036" r="10" fill="#ff8866"/><circle cx="202.15526" cy="346.13036" r="10" fill="#ff8866"/><g><ellipse cx="223.75634" cy="66.65212" rx="12.46328" ry="12.20069" fill="#f2f2f2"/><path d="M323.6692,62.4782h-67.08496c-2.30142,0-4.17392-1.87249-4.17392-4.17392s1.87249-4.17392,4.17392-4.17392h67.08496c2.30142,0,4.17392,1.87249,4.17392,4.17392s-1.87249,4.17392-4.17392,4.17392Z" fill="#f2f2f2"/><path d="M376.02253,76.60531h-119.43829c-2.30142,0-4.17392-1.87249-4.17392-4.17392s1.87249-4.17392,4.17392-4.17392h119.43829c2.30142,0,4.17392,1.87249,4.17392,4.17392s-1.87249,4.17392-4.17392,4.17392Z" fill="#f2f2f2"/></g><g><ellipse cx="43.35911" cy="122.23426" rx="8.06605" ry="7.8961" fill="#f2f2f2"/><path d="M108.02125,119.53296h-43.4164c-1.48945,0-2.7013-1.21185-2.7013-2.7013s1.21185-2.7013,2.7013-2.7013h43.4164c1.48945,0,2.7013,1.21185,2.7013,2.7013s-1.21185,2.7013-2.7013,2.7013Z" fill="#f2f2f2"/><path d="M141.90355,128.67582H64.60485c-1.48945,0-2.7013-1.21185-2.7013-2.7013s1.21185-2.7013,2.7013-2.7013h77.2987c1.48945,0,2.7013,1.21185,2.7013,2.7013s-1.21185,2.7013-2.7013,2.7013Z" fill="#f2f2f2"/></g><g><ellipse cx="285.35911" cy="403.23426" rx="8.06605" ry="7.8961" fill="#f2f2f2"/><path d="M350.02125,400.53296h-43.4164c-1.48945,0-2.7013-1.21185-2.7013-2.7013s1.21185-2.7013,2.7013-2.7013h43.4164c1.48945,0,2.7013,1.21185,2.7013,2.7013s-1.21185,2.7013-2.7013,2.7013Z" fill="#f2f2f2"/><path d="M383.90355,409.67582h-77.2987c-1.48945,0-2.7013-1.21185-2.7013-2.7013s1.21185-2.7013,2.7013-2.7013h77.2987c1.48945,0,2.7013,1.21185,2.7013,2.7013s-1.21185,2.7013-2.7013,2.7013Z" fill="#f2f2f2"/></g><rect x="186.40511" y="155.97039" width="2" height="95" fill="#e6e6e6"/><circle cx="187.40511" cy="250.97039" r="6" fill="#e6e6e6"/><circle cx="248.40511" cy="319.97039" r="6" fill="#e6e6e6"/><circle cx="116.40511" cy="237.97039" r="6" fill="#e6e6e6"/><rect x="81.39767" y="238.47579" width="32.82787" height="2.00092" transform="translate(-7.20166 3.0694) rotate(-1.73401)" fill="#e6e6e6"/><polygon points="297.21615 342.94011 247.46029 342.94011 247.46029 319.97039 249.46029 319.97039 249.46029 340.94011 297.21615 340.94011 297.21615 342.94011" fill="#e6e6e6"/><circle cx="118.40511" cy="320.97039" r="6" fill="#e6e6e6"/><polygon points="167.21615 343.94011 117.46029 343.94011 117.46029 320.97039 119.46029 320.97039 119.46029 341.94011 167.21615 341.94011 167.21615 343.94011" fill="#e6e6e6"/><rect x="75.42269" y="280.65496" width="238.98242" height="2" fill="#e6e6e6"/></svg>